<svg width="14" height="14" viewBox="0 0 14 14" fill="none" xmlns="http://www.w3.org/2000/svg">
<g clip-path="url(#clip0_82_275)">
<path d="M13.125 6.41699H1.45832V1.49949C1.45832 1.16699 1.7675 0.875316 2.1204 0.875316H3.33957C3.68375 0.875316 3.96082 1.15532 3.96375 1.49657C3.395 1.63949 2.91668 2.16449 2.91668 2.71864V3.50032C2.91668 3.66074 3.04793 3.79199 3.20835 3.79199H5.25C5.41043 3.79199 5.54168 3.66074 5.54168 3.50032V2.71867C5.54168 2.15574 5.09543 1.63949 4.5471 1.49949C4.5471 0.834492 4.00753 0.291992 3.3396 0.291992H2.12043C1.44668 0.291992 0.875 0.846168 0.875 1.49949V6.41699C0.39375 6.41407 0.00292578 6.80492 0 7.28617C0 7.53699 0.105 7.77324 0.291676 7.93949V9.46782C0.291676 10.6549 0.819602 11.6728 1.67418 12.3349L1.19585 13.2857C1.12293 13.4286 1.18128 13.6036 1.3271 13.6765C1.47003 13.7495 1.64503 13.6911 1.71793 13.5453L2.1671 12.6499C2.75628 12.9649 3.41543 13.1282 4.08335 13.1224H9.91668C10.5846 13.1282 11.2437 12.9649 11.8329 12.6499L12.2821 13.5453C12.355 13.6882 12.53 13.7465 12.6729 13.6765C12.8159 13.6065 12.8742 13.4286 12.8042 13.2857L12.3259 12.332C13.1804 11.6728 13.7084 10.652 13.7084 9.46489V7.93657C13.8921 7.77614 14 7.53989 14 7.29199C14 6.80784 13.6092 6.41699 13.125 6.41699ZM4.25543 2.04199C4.6025 2.04199 4.95835 2.38324 4.95835 2.71867V3.20867H3.5V2.71867C3.5 2.39492 3.89375 2.04199 4.25543 2.04199ZM13.125 9.46784C13.125 11.2208 11.7454 12.542 9.91668 12.542H4.08332C2.25457 12.542 0.875 11.2207 0.875 9.46784V8.16702H13.125V9.46784ZM13.125 7.58367H0.88375C0.737926 7.58367 0.606676 7.47867 0.58625 7.33574C0.56 7.15492 0.7 7.00032 0.875 7.00032H13.1163C13.2621 7.00032 13.3933 7.10532 13.4137 7.24824C13.44 7.42909 13.3 7.58367 13.125 7.58367Z" fill="#123E56"/>
</g>
<defs>
<clipPath id="clip0_82_275">
<rect width="14" height="14" fill="white"/>
</clipPath>
</defs>
</svg>
