<svg width="14" height="14" viewBox="0 0 14 14" fill="none" xmlns="http://www.w3.org/2000/svg">
<g clip-path="url(#clip0_82_263)">
<path fill-rule="evenodd" clip-rule="evenodd" d="M0 3.68426H0.736797V1.25542L5.12567 5.64429L5.6466 5.12323L1.26028 0.736797H3.68426V0H0V3.68426ZM14 3.68426H13.2632V1.25989L8.87688 5.64625L8.35596 5.12519L12.7443 0.736797H10.3159V0H14V3.68426ZM3.68426 13.9996H0V10.3154H0.736797V12.7397L5.12006 8.35645L5.64112 8.87751L1.25587 13.2628H3.68426V13.9996ZM14 13.9996H10.3159V13.2628H12.7391L8.35669 8.88043L8.87775 8.35938L13.2632 12.7449V10.3154H14V13.9996Z" fill="#123E56"/>
</g>
<defs>
<clipPath id="clip0_82_263">
<rect width="14" height="14" fill="white"/>
</clipPath>
</defs>
</svg>
