<svg width="20" height="20" viewBox="0 0 20 20" fill="none" xmlns="http://www.w3.org/2000/svg">
<path d="M10 0.833344C5.8645 0.833344 2.5 4.10554 2.5 8.12759C2.5 12.7624 5.59225 15.5586 7.64313 17.4092C8.29563 18.0259 9.15137 18.3333 10.0052 18.3333C10.8573 18.3333 11.7074 18.027 12.3505 17.4154C14.401 15.5648 17.5 12.7671 17.5 8.12759C17.5 4.10554 14.1355 0.833344 10 0.833344ZM10 11.0453C8.34588 11.0453 7 9.73634 7 8.12759C7 6.51885 8.34588 5.20989 10 5.20989C11.6541 5.20989 13 6.51885 13 8.12759C13 9.73634 11.6541 11.0453 10 11.0453Z" fill="#123E56"/>
</svg>
